<svg xmlns="http://www.w3.org/2000/svg" viewBox="0 0 24 21">
  <rect width="24" height="21" rx="4" fill="#FAFAF7"/>
  <path d="M18.7532 1.81665C17.0775 1.81665 15.6902 3.0457 15.4211 4.65701C15.1521 3.04535 13.7648 1.81665 12.089 1.81665C10.4132 1.81665 9.02587 3.0457 8.75683 4.65701C8.48778 3.04535 7.10048 1.81665 5.42469 1.81665C3.55657 1.81665 2.04199 3.34281 2.04199 5.22522C2.04199 7.10763 3.55657 8.6338 5.42469 8.6338C7.10048 8.6338 8.48778 7.40474 8.75683 5.79344C9.02587 7.4051 10.4132 8.6338 12.089 8.6338C13.7648 8.6338 15.1521 7.40474 15.4211 5.79344C15.6902 7.4051 17.0775 8.6338 18.7532 8.6338C20.6214 8.6338 22.1359 7.10763 22.1359 5.22522C22.1359 3.34281 20.6214 1.81665 18.7532 1.81665Z" fill="#00B140"/>
  <path d="M18.7532 12.0596C17.0775 12.0596 15.6902 13.2886 15.4211 14.8999C15.1521 13.2883 13.7648 12.0596 12.089 12.0596C10.4132 12.0596 9.02587 13.2886 8.75683 14.8999C8.48778 13.2883 7.10048 12.0596 5.42469 12.0596C3.55657 12.0596 2.04199 13.5857 2.04199 15.4681C2.04199 17.3506 3.55657 18.8767 5.42469 18.8767C7.10048 18.8767 8.48778 17.6477 8.75683 16.0364C9.02587 17.648 10.4132 18.8767 12.089 18.8767C13.7648 18.8767 15.1521 17.6477 15.4211 16.0364C15.6902 17.648 17.0775 18.8767 18.7532 18.8767C20.6214 18.8767 22.1359 17.3506 22.1359 15.4681C22.1359 13.5857 20.6214 12.0596 18.7532 12.0596Z" fill="#00B140"/>
</svg>
